<?xml version="1.0" standalone="no"?>
<!DOCTYPE svg PUBLIC "-//W3C//DTD SVG 20010904//EN"
 "http://www.w3.org/TR/2001/REC-SVG-20010904/DTD/svg10.dtd">
<svg version="1.0" xmlns="http://www.w3.org/2000/svg"
 width="700.000000pt" height="700.000000pt" viewBox="0 0 700.000000 700.000000"
 preserveAspectRatio="xMidYMid meet">
<metadata>
Created by potrace 1.14, written by Peter Selinger 2001-2017
</metadata>
<g transform="translate(0.000000,700.000000) scale(0.100000,-0.100000)"
fill="#000000" stroke="none">
<path d="M2638 5832 c-9 -2 -51 -78 -102 -186 -47 -101 -113 -240 -146 -310
-33 -70 -60 -128 -60 -130 0 -2 -35 -78 -78 -168 -43 -89 -87 -181 -97 -203
-10 -22 -51 -109 -91 -194 -41 -84 -74 -155 -74 -157 0 -1 -26 -58 -59 -126
-74 -155 -205 -434 -241 -513 -15 -33 -53 -114 -85 -180 -31 -66 -72 -151 -90
-190 -18 -38 -73 -155 -122 -260 -50 -104 -104 -219 -121 -255 -60 -130 -116
-247 -162 -345 -69 -146 -180 -382 -230 -490 -15 -33 -53 -114 -85 -180 -31
-66 -88 -187 -127 -270 -39 -82 -88 -188 -111 -235 -106 -223 -125 -269 -114
-272 10 -3 800 -2 848 1 10 1 30 31 52 79 19 42 58 124 85 182 27 58 66 141
87 185 20 44 54 116 75 160 21 44 66 138 99 209 34 70 61 130 61 131 0 2 36
78 80 170 44 92 80 168 80 170 0 3 67 144 186 393 30 62 54 114 54 116 0 2 30
66 66 142 36 77 84 177 106 224 22 47 59 126 83 175 23 50 57 122 75 160 37
78 248 528 317 675 25 52 60 127 78 165 35 76 93 199 175 370 66 139 102 215
133 285 14 30 49 107 80 170 30 63 66 140 80 170 14 30 53 114 87 185 34 72
62 134 63 139 2 8 -816 16 -855 8z"/>
<path d="M4090 5832 c-6 -2 -21 -27 -34 -55 -13 -29 -43 -92 -66 -142 -23 -49
-59 -126 -80 -170 -21 -44 -59 -125 -85 -180 -26 -55 -78 -165 -115 -245 -37
-80 -90 -192 -118 -250 -27 -58 -66 -139 -85 -180 -19 -41 -56 -120 -82 -175
-26 -55 -60 -127 -75 -160 -15 -33 -54 -114 -85 -180 -32 -66 -70 -147 -85
-180 -15 -33 -83 -177 -150 -320 -68 -143 -141 -298 -162 -345 -22 -47 -61
-128 -85 -180 -25 -52 -61 -129 -80 -170 -52 -112 -94 -200 -167 -353 -36 -77
-66 -140 -66 -142 0 -1 -34 -73 -75 -159 -41 -86 -75 -158 -75 -160 0 -2 -31
-68 -69 -147 -103 -216 -160 -338 -188 -399 -14 -30 -50 -107 -81 -170 -47
-99 -92 -198 -92 -203 0 -2 818 0 856 2 15 1 26 12 37 39 15 35 68 148 165
352 25 52 46 97 46 100 1 3 16 34 33 70 43 89 113 237 163 345 23 50 95 203
160 340 64 138 133 284 152 325 20 41 56 118 81 170 24 52 63 133 85 180 53
114 274 584 324 690 22 47 55 117 73 155 18 39 73 156 122 260 50 105 102 215
116 245 13 30 47 102 75 160 89 186 162 342 162 345 0 2 38 83 85 180 47 98
85 179 85 180 0 2 34 73 75 160 41 86 75 158 75 161 0 2 22 49 49 104 l50 100
-27 1 c-80 3 -834 3 -842 1z"/>
<path d="M5562 5832 c-23 -4 -34 -23 -135 -242 -13 -30 -69 -147 -122 -260
-54 -113 -113 -239 -132 -280 -77 -163 -112 -239 -152 -322 -80 -170 -125
-265 -236 -503 -62 -132 -136 -289 -165 -350 -29 -60 -65 -137 -80 -170 -15
-33 -50 -107 -78 -165 -46 -98 -65 -138 -162 -345 -21 -44 -57 -120 -80 -170
-64 -136 -129 -274 -157 -335 -14 -30 -57 -119 -94 -198 -38 -79 -69 -145 -69
-147 0 -1 -31 -67 -69 -146 -66 -138 -105 -221 -176 -374 -18 -38 -52 -110
-75 -160 -23 -49 -55 -117 -70 -150 -15 -33 -58 -123 -94 -199 -37 -76 -64
-141 -61 -144 10 -11 848 -7 862 3 7 6 41 69 74 140 34 72 79 168 101 215 22
47 53 112 68 145 15 33 48 103 73 155 24 52 96 205 160 340 63 135 141 299
172 365 31 66 72 152 90 190 66 141 174 373 220 470 26 55 60 127 75 160 15
33 52 112 82 175 31 63 69 144 86 180 16 36 50 108 75 160 24 52 97 208 162
345 65 138 137 291 160 340 99 209 138 293 162 345 14 30 59 124 99 208 41 85
74 155 74 157 0 2 27 61 61 132 147 309 199 421 199 431 0 7 -804 10 -848 4z"/>
</g>
</svg>
